<svg height="1934" width="720" xmlns="http://www.w3.org/2000/svg">
<rect height="1934" fill="#555" width="720"></rect>
<text fill="#7f7" font-family="Courier New" font-size="12" xml:space="preserve">
<tspan x="10" y="26">19 megabytes installed</tspan>
<tspan x="10" y="42"></tspan>
<tspan x="10" y="58">node_modules</tspan>
<tspan x="10" y="74">└─┬ babel-cli@6.24.1 </tspan>
<tspan x="10" y="90">  ├─┬ babel-core@6.24.1 </tspan>
<tspan x="10" y="106">  │ ├─┬ babel-code-frame@6.22.0 </tspan>
<tspan x="10" y="122">  │ │ ├─┬ chalk@1.1.3 </tspan>
<tspan x="10" y="138">  │ │ │ ├── ansi-styles@2.2.1 </tspan>
<tspan x="10" y="154">  │ │ │ ├── escape-string-regexp@1.0.5 </tspan>
<tspan x="10" y="170">  │ │ │ ├─┬ has-ansi@2.0.0 </tspan>
<tspan x="10" y="186">  │ │ │ │ └── ansi-regex@2.1.1 </tspan>
<tspan x="10" y="202">  │ │ │ ├── strip-ansi@3.0.1 </tspan>
<tspan x="10" y="218">  │ │ │ └── supports-color@2.0.0 </tspan>
<tspan x="10" y="234">  │ │ ├── esutils@2.0.2 </tspan>
<tspan x="10" y="250">  │ │ └── js-tokens@3.0.1 </tspan>
<tspan x="10" y="266">  │ ├─┬ babel-generator@6.24.1 </tspan>
<tspan x="10" y="282">  │ │ ├─┬ detect-indent@4.0.0 </tspan>
<tspan x="10" y="298">  │ │ │ └─┬ repeating@2.0.1 </tspan>
<tspan x="10" y="314">  │ │ │   └─┬ is-finite@1.0.2 </tspan>
<tspan x="10" y="330">  │ │ │     └── number-is-nan@1.0.1 </tspan>
<tspan x="10" y="346">  │ │ ├── jsesc@1.3.0 </tspan>
<tspan x="10" y="362">  │ │ └── trim-right@1.0.1 </tspan>
<tspan x="10" y="378">  │ ├── babel-helpers@6.24.1 </tspan>
<tspan x="10" y="394">  │ ├── babel-messages@6.23.0 </tspan>
<tspan x="10" y="410">  │ ├── babel-template@6.24.1 </tspan>
<tspan x="10" y="426">  │ ├─┬ babel-traverse@6.24.1 </tspan>
<tspan x="10" y="442">  │ │ ├── globals@9.17.0 </tspan>
<tspan x="10" y="458">  │ │ └─┬ invariant@2.2.2 </tspan>
<tspan x="10" y="474">  │ │   └── loose-envify@1.3.1 </tspan>
<tspan x="10" y="490">  │ ├─┬ babel-types@6.24.1 </tspan>
<tspan x="10" y="506">  │ │ └── to-fast-properties@1.0.2 </tspan>
<tspan x="10" y="522">  │ ├── babylon@6.16.1 </tspan>
<tspan x="10" y="538">  │ ├─┬ debug@2.6.3 </tspan>
<tspan x="10" y="554">  │ │ └── ms@0.7.2 </tspan>
<tspan x="10" y="570">  │ ├── json5@0.5.1 </tspan>
<tspan x="10" y="586">  │ ├─┬ minimatch@3.0.3 </tspan>
<tspan x="10" y="602">  │ │ └─┬ brace-expansion@1.1.7 </tspan>
<tspan x="10" y="618">  │ │   ├── balanced-match@0.4.2 </tspan>
<tspan x="10" y="634">  │ │   └── concat-map@0.0.1 </tspan>
<tspan x="10" y="650">  │ └── private@0.1.7 </tspan>
<tspan x="10" y="666">  ├─┬ babel-polyfill@6.23.0 </tspan>
<tspan x="10" y="682">  │ ├── core-js@2.4.1 </tspan>
<tspan x="10" y="698">  │ └── regenerator-runtime@0.10.3 </tspan>
<tspan x="10" y="714">  ├─┬ babel-register@6.24.1 </tspan>
<tspan x="10" y="730">  │ ├─┬ home-or-tmp@2.0.0 </tspan>
<tspan x="10" y="746">  │ │ ├── os-homedir@1.0.2 </tspan>
<tspan x="10" y="762">  │ │ └── os-tmpdir@1.0.2 </tspan>
<tspan x="10" y="778">  │ ├─┬ mkdirp@0.5.1 </tspan>
<tspan x="10" y="794">  │ │ └── minimist@0.0.8 </tspan>
<tspan x="10" y="810">  │ └── source-map-support@0.4.14 </tspan>
<tspan x="10" y="826">  ├── babel-runtime@6.23.0 </tspan>
<tspan x="10" y="842">  ├─┬ chokidar@1.6.1 </tspan>
<tspan x="10" y="858">  │ ├─┬ anymatch@1.3.0 </tspan>
<tspan x="10" y="874">  │ │ ├── arrify@1.0.1 </tspan>
<tspan x="10" y="890">  │ │ └─┬ micromatch@2.3.11 </tspan>
<tspan x="10" y="906">  │ │   ├─┬ arr-diff@2.0.0 </tspan>
<tspan x="10" y="922">  │ │   │ └── arr-flatten@1.0.1 </tspan>
<tspan x="10" y="938">  │ │   ├── array-unique@0.2.1 </tspan>
<tspan x="10" y="954">  │ │   ├─┬ braces@1.8.5 </tspan>
<tspan x="10" y="970">  │ │   │ ├─┬ expand-range@1.8.2 </tspan>
<tspan x="10" y="986">  │ │   │ │ └─┬ fill-range@2.2.3 </tspan>
<tspan x="10" y="1002">  │ │   │ │   ├── is-number@2.1.0 </tspan>
<tspan x="10" y="1018">  │ │   │ │   ├── isobject@2.1.0 </tspan>
<tspan x="10" y="1034">  │ │   │ │   ├── randomatic@1.1.6 </tspan>
<tspan x="10" y="1050">  │ │   │ │   └── repeat-string@1.6.1 </tspan>
<tspan x="10" y="1066">  │ │   │ ├── preserve@0.2.0 </tspan>
<tspan x="10" y="1082">  │ │   │ └── repeat-element@1.1.2 </tspan>
<tspan x="10" y="1098">  │ │   ├─┬ expand-brackets@0.1.5 </tspan>
<tspan x="10" y="1114">  │ │   │ └── is-posix-bracket@0.1.1 </tspan>
<tspan x="10" y="1130">  │ │   ├── extglob@0.3.2 </tspan>
<tspan x="10" y="1146">  │ │   ├── filename-regex@2.0.0 </tspan>
<tspan x="10" y="1162">  │ │   ├─┬ kind-of@3.1.0 </tspan>
<tspan x="10" y="1178">  │ │   │ └── is-buffer@1.1.5 </tspan>
<tspan x="10" y="1194">  │ │   ├─┬ normalize-path@2.1.1 </tspan>
<tspan x="10" y="1210">  │ │   │ └── remove-trailing-separator@1.0.1 </tspan>
<tspan x="10" y="1226">  │ │   ├─┬ object.omit@2.0.1 </tspan>
<tspan x="10" y="1242">  │ │   │ ├─┬ for-own@0.1.5 </tspan>
<tspan x="10" y="1258">  │ │   │ │ └── for-in@1.0.2 </tspan>
<tspan x="10" y="1274">  │ │   │ └── is-extendable@0.1.1 </tspan>
<tspan x="10" y="1290">  │ │   ├─┬ parse-glob@3.0.4 </tspan>
<tspan x="10" y="1306">  │ │   │ ├── glob-base@0.3.0 </tspan>
<tspan x="10" y="1322">  │ │   │ └── is-dotfile@1.0.2 </tspan>
<tspan x="10" y="1338">  │ │   └─┬ regex-cache@0.4.3 </tspan>
<tspan x="10" y="1354">  │ │     ├── is-equal-shallow@0.1.3 </tspan>
<tspan x="10" y="1370">  │ │     └── is-primitive@2.0.0 </tspan>
<tspan x="10" y="1386">  │ ├── async-each@1.0.1 </tspan>
<tspan x="10" y="1402">  │ ├── glob-parent@2.0.0 </tspan>
<tspan x="10" y="1418">  │ ├── inherits@2.0.3 </tspan>
<tspan x="10" y="1434">  │ ├─┬ is-binary-path@1.0.1 </tspan>
<tspan x="10" y="1450">  │ │ └── binary-extensions@1.8.0 </tspan>
<tspan x="10" y="1466">  │ ├─┬ is-glob@2.0.1 </tspan>
<tspan x="10" y="1482">  │ │ └── is-extglob@1.0.0 </tspan>
<tspan x="10" y="1498">  │ └─┬ readdirp@2.1.0 </tspan>
<tspan x="10" y="1514">  │   ├─┬ readable-stream@2.2.9 </tspan>
<tspan x="10" y="1530">  │   │ ├── buffer-shims@1.0.0 </tspan>
<tspan x="10" y="1546">  │   │ ├── core-util-is@1.0.2 </tspan>
<tspan x="10" y="1562">  │   │ ├── isarray@1.0.0 </tspan>
<tspan x="10" y="1578">  │   │ ├── process-nextick-args@1.0.7 </tspan>
<tspan x="10" y="1594">  │   │ ├── string_decoder@1.0.0 </tspan>
<tspan x="10" y="1610">  │   │ └── util-deprecate@1.0.2 </tspan>
<tspan x="10" y="1626">  │   └── set-immediate-shim@1.0.1 </tspan>
<tspan x="10" y="1642">  ├─┬ commander@2.9.0 </tspan>
<tspan x="10" y="1658">  │ └── graceful-readlink@1.0.1 </tspan>
<tspan x="10" y="1674">  ├── convert-source-map@1.5.0 </tspan>
<tspan x="10" y="1690">  ├── fs-readdir-recursive@1.0.0 </tspan>
<tspan x="10" y="1706">  ├─┬ glob@7.1.1 </tspan>
<tspan x="10" y="1722">  │ ├── fs.realpath@1.0.0 </tspan>
<tspan x="10" y="1738">  │ ├─┬ inflight@1.0.6 </tspan>
<tspan x="10" y="1754">  │ │ └── wrappy@1.0.2 </tspan>
<tspan x="10" y="1770">  │ └── once@1.4.0 </tspan>
<tspan x="10" y="1786">  ├── lodash@4.17.4 </tspan>
<tspan x="10" y="1802">  ├─┬ output-file-sync@1.1.2 </tspan>
<tspan x="10" y="1818">  │ ├── graceful-fs@4.1.11 </tspan>
<tspan x="10" y="1834">  │ └── object-assign@4.1.1 </tspan>
<tspan x="10" y="1850">  ├── path-is-absolute@1.0.1 </tspan>
<tspan x="10" y="1866">  ├── slash@1.0.0 </tspan>
<tspan x="10" y="1882">  ├── source-map@0.5.6 </tspan>
<tspan x="10" y="1898">  └─┬ v8flags@2.0.12 </tspan>
<tspan x="10" y="1914">    └── user-home@1.1.1</tspan>
</text>
</svg>
